<?xml version="1.0" encoding="UTF-8" standalone="no"?>
<!-- Created with Inkscape (http://www.inkscape.org/) -->

<svg
   xmlns:dc="http://purl.org/dc/elements/1.1/"
   xmlns:cc="http://creativecommons.org/ns#"
   xmlns:rdf="http://www.w3.org/1999/02/22-rdf-syntax-ns#"
   xmlns:svg="http://www.w3.org/2000/svg"
   xmlns="http://www.w3.org/2000/svg"
   xmlns:sodipodi="http://sodipodi.sourceforge.net/DTD/sodipodi-0.dtd"
   xmlns:inkscape="http://www.inkscape.org/namespaces/inkscape"
   inkscape:version="0.48.2 r9819"
   version="1.1"
   id="svg2"
   height="1620"
   width="2160"
   sodipodi:docname="New document 1">
  <sodipodi:namedview
     id="base"
     pagecolor="#ffffff"
     bordercolor="#666666"
     borderopacity="1.0"
     inkscape:pageopacity="0.0"
     inkscape:pageshadow="2"
     inkscape:zoom="0.97127571"
     inkscape:cx="587.00167"
     inkscape:cy="1420.5018"
     inkscape:document-units="px"
     inkscape:current-layer="svg2"
     showgrid="false"
     inkscape:window-width="1440"
     inkscape:window-height="791"
     inkscape:window-x="0"
     inkscape:window-y="0"
     inkscape:window-maximized="1" />
  <defs
     id="defs4" />
  <metadata
     id="metadata7">
    <rdf:RDF>
      <cc:Work
         rdf:about="">
        <dc:format>image/svg+xml</dc:format>
        <dc:type
           rdf:resource="http://purl.org/dc/dcmitype/StillImage" />
        <dc:title></dc:title>
      </cc:Work>
    </rdf:RDF>
  </metadata>
  <g
     inkscape:label="Layer 1"
     inkscape:groupmode="layer"
     id="layer1"
     transform="translate(0,567.6378)" />
  <g
     id="g3193"
     inkscape:label="Gear24"
     transform="translate(1048.4172,180.79674)">
    <path
       id="path3195"
       style="fill:none;stroke:#000000"
       d="m 69.802,-5.621 1.754,-0.141 4.675,0.766 6.498,2.719 0,4.554 -6.498,2.719 -4.675,0.766 -1.754,-0.141 -0.923,7.016 1.73,0.317 4.317,1.95 5.574,4.308 -1.179,4.4 -6.981,0.944 -4.714,-0.47 -1.657,-0.59 -2.708,6.537 1.589,0.755 3.666,3 4.268,5.604 -2.277,3.945 -6.987,-0.895 -4.432,-1.674 -1.448,-0.999 -4.308,5.614 1.34,1.14 2.764,3.847 2.673,6.518 -3.221,3.221 -6.518,-2.673 -3.847,-2.764 -1.14,-1.34 -5.614,4.308 0.999,1.448 1.674,4.432 0.895,6.987 -3.945,2.277 -5.604,-4.268 -3,-3.666 -0.755,-1.589 -6.537,2.708 0.59,1.657 0.47,4.714 -0.944,6.981 -4.4,1.179 -4.308,-5.574 -1.95,-4.317 -0.317,-1.73 -7.016,0.923 0.141,1.754 -0.766,4.675 -2.719,6.498 -4.554,0 -2.719,-6.498 -0.766,-4.675 0.141,-1.754 -7.016,-0.923 -0.317,1.73 -1.95,4.317 -4.308,5.574 -4.4,-1.179 -0.944,-6.981 0.47,-4.714 0.59,-1.657 -6.537,-2.708 -0.755,1.589 -3,3.666 -5.604,4.268 -3.945,-2.277 0.895,-6.987 1.674,-4.432 0.999,-1.448 -5.614,-4.308 -1.14,1.34 -3.847,2.764 -6.518,2.673 -3.221,-3.221 2.673,-6.518 2.764,-3.847 1.34,-1.14 -4.308,-5.614 -1.448,0.999 -4.432,1.674 -6.987,0.895 -2.277,-3.945 4.268,-5.604 3.666,-3 1.589,-0.755 -2.708,-6.537 -1.657,0.59 -4.714,0.47 -6.981,-0.944 -1.179,-4.4 5.574,-4.308 4.317,-1.95 1.73,-0.317 -0.923,-7.016 -1.754,0.141 -4.675,-0.766 -6.498,-2.719 0,-4.554 6.498,-2.719 4.675,-0.766 1.754,0.141 0.923,-7.016 -1.73,-0.317 -4.317,-1.95 -5.574,-4.308 1.179,-4.4 6.981,-0.944 4.714,0.47 1.657,0.59 2.708,-6.537 -1.589,-0.755 -3.666,-3 -4.268,-5.604 2.277,-3.945 6.987,0.895 4.432,1.674 1.448,0.999 4.308,-5.614 -1.34,-1.14 -2.764,-3.847 -2.673,-6.518 3.221,-3.221 6.518,2.673 3.847,2.764 1.14,1.34 5.614,-4.308 -0.999,-1.448 -1.674,-4.432 -0.895,-6.987 3.945,-2.277 5.604,4.268 3,3.666 0.755,1.589 6.537,-2.708 -0.59,-1.657 -0.47,-4.714 0.944,-6.981 4.4,-1.179 4.308,5.574 1.95,4.317 0.317,1.73 7.016,-0.923 -0.141,-1.754 0.766,-4.675 2.719,-6.498 4.554,0 2.719,6.498 0.766,4.675 -0.141,1.754 7.016,0.923 0.317,-1.73 1.95,-4.317 4.308,-5.574 4.4,1.179 0.944,6.981 -0.47,4.714 -0.59,1.657 6.537,2.708 0.755,-1.589 3,-3.666 5.604,-4.268 3.945,2.277 -0.895,6.987 -1.674,4.432 -0.999,1.448 5.614,4.308 1.14,-1.34 3.847,-2.764 6.518,-2.673 3.221,3.221 -2.673,6.518 -2.764,3.847 -1.34,1.14 4.308,5.614 1.448,-0.999 4.432,-1.674 6.987,-0.895 2.277,3.945 -4.268,5.604 -3.666,3 -1.589,0.755 2.708,6.537 1.657,-0.59 4.714,-0.47 6.981,0.944 1.179,4.4 -5.574,4.308 -4.317,1.95 -1.73,0.317 z"
       inkscape:connector-curvature="0" />
  </g>
  <g
     transform="translate(1032.6292,341.54481)"
     inkscape:label="Gear16"
     id="g3213">
    <path
       d="m 44.279,-5.028 3.273,-0.372 3.132,0.408 6.573,2.873 0,4.238 -6.573,2.873 -3.132,0.408 -3.273,-0.372 -1.446,7.271 3.166,0.909 2.738,1.576 4.972,5.17 -1.622,3.914 -7.171,0.14 -3.05,-0.821 -2.882,-1.597 -4.119,6.164 2.578,2.052 1.926,2.503 2.616,6.68 -2.996,2.996 -6.68,-2.616 -2.503,-1.926 -2.052,-2.578 -6.164,4.119 1.597,2.882 0.821,3.05 -0.14,7.171 -3.914,1.622 -5.17,-4.972 -1.576,-2.738 -0.909,-3.166 -7.271,1.446 0.372,3.273 -0.408,3.132 -2.873,6.573 -4.238,0 -2.873,-6.573 -0.408,-3.132 0.372,-3.273 -7.271,-1.446 -0.909,3.166 -1.576,2.738 -5.17,4.972 -3.914,-1.622 -0.14,-7.171 0.821,-3.05 1.597,-2.882 -6.164,-4.119 -2.052,2.578 -2.503,1.926 -6.68,2.616 -2.996,-2.996 2.616,-6.68 1.926,-2.503 2.578,-2.052 -4.119,-6.164 -2.882,1.597 -3.05,0.821 -7.171,-0.14 -1.622,-3.914 4.972,-5.17 2.738,-1.576 3.166,-0.909 -1.446,-7.271 -3.273,0.372 -3.132,-0.408 -6.573,-2.873 0,-4.238 6.573,-2.873 3.132,-0.408 3.273,0.372 1.446,-7.271 -3.166,-0.909 -2.738,-1.576 -4.972,-5.17 1.622,-3.914 7.171,-0.14 3.05,0.821 2.882,1.597 4.119,-6.164 -2.578,-2.052 -1.926,-2.503 -2.616,-6.68 2.996,-2.996 6.68,2.616 2.503,1.926 2.052,2.578 6.164,-4.119 -1.597,-2.882 -0.821,-3.05 0.14,-7.171 3.914,-1.622 5.17,4.972 1.576,2.738 0.909,3.166 7.271,-1.446 -0.372,-3.273 0.408,-3.132 2.873,-6.573 4.238,0 2.873,6.573 0.408,3.132 -0.372,3.273 7.271,1.446 0.909,-3.166 1.576,-2.738 5.17,-4.972 3.914,1.622 0.14,7.171 -0.821,3.05 -1.597,2.882 6.164,4.119 2.052,-2.578 2.503,-1.926 6.68,-2.616 2.996,2.996 -2.616,6.68 -1.926,2.503 -2.578,2.052 4.119,6.164 2.882,-1.597 3.05,-0.821 7.171,0.14 1.622,3.914 -4.972,5.17 -2.738,1.576 -3.166,0.909 z"
       style="fill:none;stroke:#000000"
       id="path3215"
       inkscape:connector-curvature="0" />
  </g>
  <path
     sodipodi:type="arc"
     style="fill:#00ff00;fill-rule:evenodd;stroke:#000000;stroke-width:1px;stroke-linecap:butt;stroke-linejoin:miter;stroke-opacity:1"
     id="path3252"
     sodipodi:cx="497.14285"
     sodipodi:cy="257.14285"
     sodipodi:rx="20"
     sodipodi:ry="20"
     d="m 517.14285,257.14285 a 20,20 0 1 1 -40,0 20,20 0 1 1 40,0 z"
     transform="matrix(0.43211062,0,0,0.43211062,832.66399,68.452173)" />
  <rect
     style="fill:#0000ff;fill-rule:evenodd;stroke:#000000;stroke-width:1px;stroke-linecap:butt;stroke-linejoin:miter;stroke-opacity:1"
     id="rect3254"
     width="495.71429"
     height="398.57144"
     x="42.857143"
     y="37.142857" />
  <path
     sodipodi:type="arc"
     style="fill:#ff0000;fill-rule:evenodd;stroke:#000000;stroke-width:1px;stroke-linecap:butt;stroke-linejoin:miter;stroke-opacity:1"
     id="path3256"
     sodipodi:cx="1002.8571"
     sodipodi:cy="240"
     sodipodi:rx="170"
     sodipodi:ry="170"
     d="m 1172.8571,240 a 170,170 0 1 1 -339.99998,0 170,170 0 1 1 339.99998,0 z"
     transform="translate(-254.33902,-11.483984)" />
  <path
     sodipodi:type="arc"
     style="fill:#00ff00;fill-rule:evenodd;stroke:#000000;stroke-width:1px;stroke-linecap:butt;stroke-linejoin:miter;stroke-opacity:1"
     id="path3258"
     sodipodi:cx="745"
     sodipodi:cy="240.71428"
     sodipodi:rx="16.428572"
     sodipodi:ry="16.428572"
     d="m 761.42857,240.71428 a 16.428572,16.428572 0 1 1 -32.85714,0 16.428572,16.428572 0 1 1 32.85714,0 z"
     transform="matrix(0.52327319,0,0,-0.52327319,358.67957,354.47535)" />
  <path
     transform="translate(3.5181006,-165.76969)"
     d="m 761.42857,240.71428 a 16.428572,16.428572 0 1 1 -32.85714,0 16.428572,16.428572 0 1 1 32.85714,0 z"
     sodipodi:ry="16.428572"
     sodipodi:rx="16.428572"
     sodipodi:cy="240.71428"
     sodipodi:cx="745"
     id="path3260"
     style="fill:#00ff00;fill-rule:evenodd;stroke:#000000;stroke-width:1px;stroke-linecap:butt;stroke-linejoin:miter;stroke-opacity:1"
     sodipodi:type="arc" />
  <path
     style="fill:#ff0000;fill-rule:evenodd;stroke:#000000;stroke-width:1px;stroke-linecap:butt;stroke-linejoin:miter;stroke-opacity:1"
     d="M 290.71875 66.4375 C 204.22567 66.4375 132.83733 131.04499 122.125 214.625 C 121.79772 215.91835 121.59375 217.26118 121.59375 218.65625 C 121.59375 218.75105 121.6234 218.84308 121.625 218.9375 C 121.6196 218.99032 121.59911 219.04092 121.59375 219.09375 L 121.625 219.09375 C 121.85825 227.96357 129.10515 235.09375 138.03125 235.09375 C 146.95729 235.09375 154.17291 227.96349 154.40625 219.09375 L 427.03125 219.09375 C 427.26459 227.96349 434.48021 235.09375 443.40625 235.09375 C 452.33235 235.09375 459.57925 227.96357 459.8125 219.09375 L 459.84375 219.09375 C 459.83839 219.04092 459.8179 218.99032 459.8125 218.9375 C 459.8141 218.84308 459.84375 218.75105 459.84375 218.65625 C 459.84375 217.26118 459.63978 215.91835 459.3125 214.625 C 448.60017 131.04499 377.21183 66.4375 290.71875 66.4375 z "
     id="path3268" />
  <path
     transform="matrix(0.52327319,0,0,-0.52327319,-99.124236,362.38791)"
     d="m 761.42857,240.71428 a 16.428572,16.428572 0 1 1 -32.85714,0 16.428572,16.428572 0 1 1 32.85714,0 z"
     sodipodi:ry="16.428572"
     sodipodi:rx="16.428572"
     sodipodi:cy="240.71428"
     sodipodi:cx="745"
     id="path3264"
     style="fill:#00ff00;fill-rule:evenodd;stroke:#000000;stroke-width:1px;stroke-linecap:butt;stroke-linejoin:miter;stroke-opacity:1"
     sodipodi:type="arc" />
  <path
     transform="matrix(0.43211062,0,0,0.43211062,817.80847,230.43065)"
     d="m 517.14285,257.14285 a 20,20 0 1 1 -40,0 20,20 0 1 1 40,0 z"
     sodipodi:ry="20"
     sodipodi:rx="20"
     sodipodi:cy="257.14285"
     sodipodi:cx="497.14285"
     id="path3266"
     style="fill:#00ff00;fill-rule:evenodd;stroke:#000000;stroke-width:1px;stroke-linecap:butt;stroke-linejoin:miter;stroke-opacity:1"
     sodipodi:type="arc" />
  <text
     xml:space="preserve"
     style="font-size:40px;font-style:normal;font-weight:normal;line-height:125%;letter-spacing:0px;word-spacing:0px;fill:#000000;fill-opacity:1;stroke:none;font-family:Sans"
     x="190.63414"
     y="166.12759"
     id="text3281"
     sodipodi:linespacing="125%"><tspan
       sodipodi:role="line"
       id="tspan3283"
       x="190.63414"
       y="166.12759">Breakfast</tspan></text>
  <text
     sodipodi:linespacing="125%"
     id="text3285"
     y="-813.36572"
     x="125.66813"
     style="font-size:40px;font-style:normal;font-weight:normal;line-height:125%;letter-spacing:0px;word-spacing:0px;fill:#000000;fill-opacity:1;stroke:none;font-family:Sans"
     xml:space="preserve"
     transform="matrix(0,1,-1,0,0,0)"
     inkscape:transform-center-x="15.478516"
     inkscape:transform-center-y="-57.419921"><tspan
       y="-813.36572"
       x="125.66813"
       id="tspan3287"
       sodipodi:role="line">Breakfast</tspan></text>
  <text
     xml:space="preserve"
     style="font-size:40px;font-style:normal;font-weight:normal;line-height:125%;letter-spacing:0px;word-spacing:0px;fill:#000000;fill-opacity:1;stroke:none;font-family:Sans"
     x="-293.53134"
     y="680.89764"
     id="text3289"
     sodipodi:linespacing="125%"
     transform="matrix(0,-1,1,0,0,0)"><tspan
       sodipodi:role="line"
       id="tspan3291"
       x="-293.53134"
       y="680.89764">Dinner</tspan></text>
  <path
     sodipodi:type="arc"
     style="fill:#00ff00;fill-rule:evenodd;stroke:#000000;stroke-width:1px;stroke-linecap:butt;stroke-linejoin:miter;stroke-opacity:1"
     id="path3293"
     sodipodi:cx="745"
     sodipodi:cy="240.71428"
     sodipodi:rx="16.428572"
     sodipodi:ry="16.428572"
     d="m 761.42857,240.71428 a 16.428572,16.428572 0 1 1 -32.85714,0 16.428572,16.428572 0 1 1 32.85714,0 z"
     transform="translate(-608.28146,-21.36829)" />
</svg>
